<?xml version="1.0" encoding="UTF-8" standalone="no"?>
<svg
   xmlns:dc="http://purl.org/dc/elements/1.1/"
   xmlns:cc="http://creativecommons.org/ns#"
   xmlns:rdf="http://www.w3.org/1999/02/22-rdf-syntax-ns#"
   xmlns:svg="http://www.w3.org/2000/svg"
   xmlns="http://www.w3.org/2000/svg"
   xmlns:sodipodi="http://sodipodi.sourceforge.net/DTD/sodipodi-0.dtd"
   xmlns:inkscape="http://www.inkscape.org/namespaces/inkscape"
   id="svg"
   version="1.1"
   width="315.29602"
   height="49.606609"
   viewBox="0 0 315.29602 49.60661"
   sodipodi:docname="freebox-os.svg"
   inkscape:version="1.0.1 (3bc2e813f5, 2020-09-07)">
  <metadata
     id="metadata869">
    <rdf:RDF>
      <cc:Work
         rdf:about="">
        <dc:format>image/svg+xml</dc:format>
        <dc:type
           rdf:resource="http://purl.org/dc/dcmitype/StillImage" />
        <dc:title />
      </cc:Work>
    </rdf:RDF>
  </metadata>
  <defs
     id="defs867" />
  <sodipodi:namedview
     pagecolor="#ffffff"
     bordercolor="#666666"
     borderopacity="1"
     objecttolerance="10"
     gridtolerance="10"
     guidetolerance="10"
     inkscape:pageopacity="0"
     inkscape:pageshadow="2"
     inkscape:window-width="1861"
     inkscape:window-height="1018"
     id="namedview865"
     showgrid="false"
     fit-margin-top="0"
     fit-margin-left="0"
     fit-margin-right="0"
     fit-margin-bottom="0"
     inkscape:zoom="2.3988598"
     inkscape:cx="164.21297"
     inkscape:cy="72.425786"
     inkscape:window-x="59"
     inkscape:window-y="25"
     inkscape:window-maximized="1"
     inkscape:current-layer="svgg"
     inkscape:document-rotation="0" />
  <g
     id="svgg"
     transform="translate(-11.348748,-11.999606)">
    <path
       id="path0"
       d="m 27.205078,12.013672 c -1.165,-0.039 -2.341609,0.0016 -3.037109,0.140625 -0.321,0.064 -0.748219,0.206453 -0.949219,0.314453 -0.2,0.109 -0.475281,0.199219 -0.613281,0.199219 -1.415,0 -4.637672,2.994578 -5.263672,4.892578 -0.109,0.331 -0.265703,0.641406 -0.345703,0.691406 -0.079,0.049 -0.192,0.443953 -0.25,0.876953 -0.059,0.433 -0.21475,1.0235 -0.34375,1.3125 -0.169,0.375 -0.234375,1.217266 -0.234375,2.947266 0,3.46 0.15289,3.258453 -2.53711,3.314453 l -2.21289,0.04687 -0.04883,1.652344 c -0.06,2.068 -0.150579,1.994265 2.357421,1.947265 1.567001,-0.029 2.107844,0.01369 2.214844,0.179688 0.078,0.121 0.180563,7.006734 0.226563,15.302734 L 16.25,60.917969 h 1.917969 1.914062 l 0.08594,-15.085938 c 0.045,-8.296 0.142797,-15.175062 0.216797,-15.289062 0.103,-0.16 1.411515,-0.210938 5.603515,-0.210938 6.289,0 5.77186,0.160313 5.88086,-1.804687 0.111,-2.008 0.577,-1.859375 -5.875,-1.859375 -5.439,0 -5.483829,-0.0034 -5.673829,-0.359375 -0.318999,-0.595 -0.134437,-5.457656 0.226563,-5.972656 0.157,-0.225001 0.285156,-0.57725 0.285156,-0.78125 0,-0.603001 1.505594,-2.722657 1.933594,-2.722657 0.116,0 0.330562,-0.117672 0.476563,-0.263672 0.911999,-0.913 5.71725,-0.98914 7.53125,-0.11914 1.024997,0.491 1.22656,0.240609 1.22656,-1.525391 0,-1.914 -0.116031,-2.078359 -1.832031,-2.568359 -0.6445,-0.184 -1.797891,-0.302797 -2.962891,-0.341797 z m 105.218752,1.130859 c -0.75175,0.03037 -1.4853,0.156969 -1.5918,0.355469 -0.506,0.946 -0.12761,33.943844 0.40039,34.964844 0.147,0.285 0.26758,0.678094 0.26758,0.871094 0,0.32 0.3833,1.262031 1.1543,2.832031 2.798,5.697 8.44573,9.219547 14.92773,9.310547 2.01,0.029 5.151,-0.431907 6,-0.878907 0.275,-0.145 0.6406,-0.264625 0.80859,-0.265625 0.16901,0 0.49747,-0.150984 0.73047,-0.333984 0.233,-0.183 0.52068,-0.332031 0.63868,-0.332031 0.466,0 2.89768,-1.807469 4.17968,-3.105469 7.648,-7.74 6.7353,-20.071564 -1.9707,-26.601562 -1.049,-0.787 -1.27672,-0.928625 -2.01172,-1.265626 -0.435,-0.199 -1.11662,-0.514218 -1.51562,-0.699218 -5.692,-2.639 -13.92516,-1.003969 -18.66016,3.707031 -0.624,0.621 -1.20502,1.128906 -1.29102,1.128906 -0.096,0 -0.1582,-3.745812 -0.1582,-9.632812 0,-7.27 -0.0482,-9.681032 -0.19922,-9.832031 -0.1865,-0.187002 -0.95723,-0.253032 -1.70898,-0.222657 z M 55.179688,26.076172 c -0.330627,-0.0057 -0.768407,0.03455 -1.347657,0.0918 -1.467,0.145 -3.912437,0.75275 -4.398437,1.09375 -0.187,0.131 -0.434828,0.238281 -0.548828,0.238281 -0.713,0 -4.499907,3.060391 -5.753907,4.650391 -0.549,0.696 -1.196453,1.426093 -1.439453,1.621093 L 41.25,34.126953 41.30859,30.642578 c 0.071,-4.231 0.197625,-3.974609 -1.984375,-3.974609 -2.422,0 -2.157281,-2.1475 -2.113281,17.1875 C 37.255941,63.179469 36.984516,61 39.353516,61 c 2.172,0 1.978515,0.796578 1.978515,-8.232422 0,-7.985 0.152094,-10.394453 0.746094,-11.814453 0.14,-0.336 0.253906,-0.74225 0.253906,-0.90625 0,-0.165 0.344625,-0.974828 0.765625,-1.798828 1.131,-2.217 2.931485,-4.347953 4.646485,-5.501953 1.666,-1.122 3.708593,-1.815516 6.183593,-2.103516 2.36,-0.274 2.351594,-0.265984 2.308594,-2.458984 -0.03225,-1.656 -0.06477,-2.090406 -1.05664,-2.107422 z m 154.005862,0.552734 c -1.979,-0.04 -2.19916,-0.01705 -2.28516,0.251953 -0.077,0.245 5.83528,7.88211 8.73828,11.28711 1.221,1.431 3.91797,4.958109 4.04297,5.287109 0.149,0.39 -0.131,1.045891 -0.625,1.462891 -0.641,0.541 -12.7187,15.889062 -12.7207,16.164062 -0.002,0.324 2.98409,0.444875 4.24609,0.171875 0.34,-0.074 1.58011,-1.43814 3.28711,-3.61914 0.524,-0.67 2.47398,-3.136469 4.33398,-5.480469 1.85902,-2.344 3.56788,-4.505734 3.79688,-4.802735 0.295,-0.383 0.50014,-0.508687 0.70312,-0.429687 0.29802,0.115 2.41068,2.624156 4.76368,5.660156 1.867,2.408 6.54159,8.20536 6.80859,8.44336 0.54,0.481 4.35588,0.50625 4.67188,0.03125 0.223,-0.336 0.1715,-0.435455 -0.8125,-1.564453 -0.578,-0.663 -1.52266,-1.813641 -2.09766,-2.556641 -0.575,-0.744 -1.17784,-1.502547 -1.33984,-1.685547 -0.266,-0.299 -1.60218,-1.961375 -2.70118,-3.359375 -1.181,-1.502 -3.75248,-4.682656 -4.02148,-4.972656 -2.059,-2.222 -2.65386,-3.321594 -2.13086,-3.933594 0.189,-0.221 0.807,-1.002328 1.375,-1.736328 0.568,-0.735 1.18028,-1.496313 1.36328,-1.695313 0.618,-0.67 4.03497,-4.91292 4.66797,-5.794922 0.183,-0.256 0.49155,-0.625312 0.68555,-0.820312 0.194,-0.195 1.06168,-1.255469 1.92968,-2.355469 0.867,-1.1 1.70719,-2.105328 1.86719,-2.236328 0.405,-0.333 0.80917,-1.163359 0.70117,-1.443359 -0.098,-0.256 -4.17029,-0.352422 -4.52929,-0.107422 -0.099,0.068 -0.69327,0.798047 -1.32227,1.623047 -0.629,0.825 -1.32106,1.68225 -1.53906,1.90625 -0.217,0.224 -0.81989,0.973015 -1.33789,1.666015 -0.518,0.692 -1.15792,1.478141 -1.41992,1.744141 -0.263,0.267 -0.60096,0.678016 -0.75196,0.916016 -0.257,0.407 -1.74726,2.288609 -3.44726,4.349609 -0.415,0.504 -0.83274,1.01 -0.92774,1.125 -0.387,0.471 -0.81053,0.192 -1.89453,-1.25 -1.018,-1.353 -3.2007,-4.090469 -4.4707,-5.605469 -0.299,-0.356 -1.03,-1.294937 -1.625,-2.085937 -0.596,-0.791 -1.21214,-1.587532 -1.36914,-1.769532 C 213.64283,29.231064 213.1292,28.596 212.6582,28 c -1.097,-1.389 -0.91865,-1.318094 -3.47265,-1.371094 z m -135.255862,0.0078 c -0.932095,0.01381 -1.882157,0.109859 -2.847657,0.287109 -3.154,0.578 -7.248,3.147391 -9,5.650391 -0.183,0.261 -0.46114,0.61425 -0.61914,0.78125 -0.158,0.168 -0.515969,0.73 -0.792969,1.25 -0.278,0.521 -0.566672,1.028906 -0.638672,1.128906 -1.202,1.67 -2.058031,6.972938 -1.707031,10.585937 0.228,2.350001 0.997312,5.101719 1.820312,6.511719 2.624,4.496 6.093469,7.259313 10.605469,8.445313 1.791,0.47 6.849031,0.427738 8.582031,-0.07227 2.108,-0.609 2.902719,-0.908469 3.261719,-1.230469 0.189,-0.169 0.434875,-0.30664 0.546875,-0.30664 0.527,0 3.390844,-2.181 5.089844,-3.875 0.608,-0.606 0.48939,-0.861938 -0.97461,-2.085938 -1.294,-1.083 -1.241125,-1.084765 -2.453125,0.115235 -5.458,5.408 -15.022625,5.41562 -19.140625,0.01563 -0.227,-0.296 -0.562093,-0.708969 -0.746093,-0.917969 -1.274,-1.448 -2.934672,-6.579141 -2.263672,-6.994141 0.106,-0.066 6.051937,-0.112515 13.210937,-0.103515 11.783,0.016 13.057594,-0.0069 13.433594,-0.253907 0.98,-0.642 -0.181625,-8.00839 -1.640625,-10.40039 -0.083,-0.138 -0.263344,-0.502547 -0.402344,-0.810547 -0.764,-1.701 -3.512031,-4.602859 -5.332031,-5.63086 -2.544,-1.43625 -5.195906,-2.131281 -7.992187,-2.089843 z m 36.771482,0.0039 c -1.05589,-0.02992 -2.13017,0.04009 -3.20117,0.214844 -1.124,0.184 -2.99303,0.780453 -3.33203,1.064453 -0.138,0.114 -0.42281,0.260219 -0.63281,0.324219 -1.894,0.577 -5.94791,4.522312 -6.87891,6.695312 -0.163,0.379 -0.376563,0.739781 -0.476562,0.800781 C 96.080687,35.802253 96,36.007266 96,36.197266 c 0,0.191 -0.141453,0.581187 -0.314453,0.867187 -0.174,0.285 -0.3715,0.782516 -0.4375,1.103516 -0.067,0.32 -0.193156,0.674109 -0.285156,0.787109 -0.396,0.492 -0.694797,5.307531 -0.466797,7.519531 0.593,5.726 4.323906,11.429907 8.753906,13.378907 0.183,0.08 0.44503,0.211968 0.58203,0.292968 0.649,0.382 1.82105,0.853516 2.12305,0.853516 0.184,0 0.6654,0.127203 1.0664,0.283203 1.082,0.422 6.79852,0.42582 8.22852,0.0059 1.919,-0.564 3.16897,-1.003126 3.41797,-1.203124 0.137,-0.111 0.61259,-0.373985 1.05859,-0.583985 2.096,-0.99 5.20371,-3.997453 4.84571,-4.689453 -0.136,-0.263 -0.30977,-0.480469 -0.38477,-0.480469 -0.076,0 -0.50412,-0.33414 -0.95312,-0.74414 -0.973,-0.886 -1.07536,-0.871735 -2.31836,0.322265 -0.804,0.773 -2.12899,1.740141 -3.58399,2.619141 -2.22,1.342 -7.56103,1.753875 -10.33203,0.796875 -2.145,-0.741 -3.00309,-1.303375 -4.74609,-3.109375 -1.329,-1.378 -1.23755,-1.249 -2.310551,-3.25 -0.863,-1.61 -1.509953,-4.081297 -1.251953,-4.779297 l 0.13086,-0.355469 h 13.236324 c 11.612,0 13.25936,-0.03095 13.44336,-0.251953 0.662,-0.797 -0.112,-6.680047 -1.25,-9.498047 -1.035,-2.565 -2.77517,-4.826703 -5.07617,-6.595703 -2.29875,-1.767 -5.30694,-2.755937 -8.47461,-2.845703 z m 75.12305,0.355469 c -1.30348,-0.0307 -2.47375,0.04842 -3.15625,0.263672 -0.413,0.13 -0.93139,0.235328 -1.15039,0.236328 -0.219,0.002 -0.74402,0.164375 -1.16602,0.359375 -0.423,0.196 -1.17959,0.54725 -1.68359,0.78125 -4.878,2.269 -8.829,7.561515 -9.5,12.728515 -0.448,3.456 -0.0515,7.112766 1.01953,9.384766 0.173,0.367 0.3135,0.729686 0.3125,0.804688 -0.006,1.773 6.49253,8.277343 8.26953,8.277343 0.104,0 0.28444,0.113 0.39844,0.25 0.114,0.138 0.34944,0.25 0.52344,0.25 0.175,0 0.72179,0.14436 1.21679,0.31836 3.45,1.213 10.2198,0.613795 13.0918,-1.158203 0.137,-0.085 0.475,-0.276782 0.75,-0.425782 2.938,-1.597 6.85242,-6.503656 7.35742,-9.222656 0.06,-0.326 0.20241,-0.742781 0.31641,-0.925781 0.65,-1.054 0.63936,-8.284938 -0.0137,-9.335938 -0.114,-0.183 -0.25636,-0.620656 -0.31836,-0.972656 -0.099,-0.56 -0.47574,-1.486344 -0.92774,-2.277344 -0.079,-0.137 -0.34389,-0.632515 -0.58789,-1.103515 -1.43,-2.751 -4.8912,-5.625063 -8.7832,-7.289063 -1.25563,-0.5375 -3.79628,-0.892187 -5.96875,-0.943359 z M 74.160156,30.369141 c 0.763233,0.01632 1.545469,0.109734 2.339844,0.287109 4.336,0.968 7.278781,4.222406 8.425781,9.316406 0.596,2.644 1.917953,2.359375 -10.998047,2.359375 -13,0 -11.78464,0.22711 -11.18164,-2.08789 1.62925,-6.2545 6.071435,-9.989256 11.414062,-9.875 z m 36.093754,0.0625 c 0.88265,-0.01466 1.74539,0.06073 2.52539,0.240234 4.264,0.983 7.20504,4.298406 8.37304,9.441406 0.417,1.837 0.42298,1.989141 0.084,2.119141 -0.561,0.216 -22.158408,0.111578 -22.441408,-0.107422 -0.986,-0.764 1.500988,-6.499734 3.708988,-8.552734 0.388,-0.361 0.82561,-0.777735 0.97461,-0.927735 1.3005,-1.311 4.12742,-2.168922 6.77539,-2.21289 z m 38.25781,0.109375 c 1.02759,0.02744 2.05058,0.145061 3.02539,0.359375 5.048,1.11 9.06412,5.797265 9.70312,11.322265 0.712,6.155 -1.59918,10.832578 -6.99218,14.142578 -3.102,1.904 -9.57113,1.913576 -12.70313,0.01758 -2.024,-1.225 -3.77998,-2.853421 -4.83398,-4.482421 -0.113,-0.175 -0.394,-0.601219 -0.625,-0.949219 -0.23,-0.348 -0.41797,-0.724891 -0.41797,-0.837891 0,-0.113 -0.11591,-0.366453 -0.25391,-0.564453 -0.853,-1.217 -1.40239,-6.186859 -0.90039,-8.130859 0.095,-0.367 0.24689,-0.968938 0.33789,-1.335938 0.092,-0.366 0.26286,-0.816 0.38086,-1 0.118,-0.183 0.27089,-0.557031 0.33789,-0.832031 0.068,-0.275 0.26736,-0.634828 0.44336,-0.798828 0.175,-0.164 0.31836,-0.392813 0.31836,-0.507813 0,-0.795 3.23597,-4.025156 4.91797,-4.910156 1.72,-0.904375 3.95422,-1.417842 6.23438,-1.490234 0.34202,-0.01086 0.68481,-0.0111 1.02734,-0.002 z m 37.20898,0.11914 c 0.87064,-0.01328 1.76977,0.04814 2.69727,0.181641 4.764,0.685 9.09248,4.659203 10.52148,9.658203 0.865,3.025 0.15241,8.788031 -1.30859,10.582031 -0.075,0.092 -0.34561,0.486953 -0.59961,0.876953 -1.8,2.762 -4.35342,4.567 -7.60742,5.375 -11.864,2.949 -20.95708,-9.37167 -14.95508,-20.263672 0.463,-0.84 3.24341,-3.771109 4.06641,-4.287109 2.20425,-1.38 4.57362,-2.083203 7.18554,-2.123047 z"
       style="display:inline" />
    <path
       id="path0-6"
       style="display:inline"
       d="m 280.67188,27.0625 c -1.37777,-0.02218 -2.72507,0.05916 -3.66407,0.269531 -3.233,0.724 -6.26169,2.450219 -8.67969,4.949219 -1.257,1.299 -1.62603,1.769719 -2.45703,3.136719 -0.349,0.574 -1.20407,2.452484 -1.20507,2.646484 -10e-4,0.102 -0.11586,0.404875 -0.25586,0.671875 -0.139,0.268 -0.32511,0.990469 -0.41211,1.605469 -0.087,0.616 -0.24461,1.334656 -0.34961,1.597656 -0.299,0.74 -0.24989,3.977828 0.0762,5.048828 0.152,0.497 0.27539,1.156844 0.27539,1.464844 0,0.307 0.14903,0.854844 0.33203,1.214844 0.184,0.359 0.33594,0.748187 0.33594,0.867187 0,0.272 1.31166,2.852813 1.84765,3.632813 1.29301,1.881 4.15868,4.547437 5.26368,4.898437 0.197,0.063 0.44954,0.223422 0.56054,0.357422 0.111,0.134 0.33124,0.244141 0.49024,0.244141 0.16,0 0.47145,0.13764 0.68945,0.30664 0.219,0.169 0.65947,0.356016 0.98047,0.416016 0.321,0.061 0.80703,0.21575 1.08203,0.34375 1.731,0.811 7.552,0.756291 10.25,-0.0957 8.203,-2.591 13.15861,-11.268906 11.34961,-19.878906 -0.425,-2.027 -1.16434,-4.109672 -1.77734,-5.013672 -0.222,-0.327 -0.4043,-0.664047 -0.4043,-0.748047 0,-0.516 -2.85403,-3.569766 -4.33203,-4.634766 -1.623,-1.169 -3.49024,-2.195312 -3.99024,-2.195312 -0.148,0 -0.42718,-0.111141 -0.61718,-0.244141 -0.71313,-0.499375 -3.09242,-0.824355 -5.38867,-0.861328 z m 0.14257,3.628906 c 1.13047,0.02047 2.28261,0.17675 3.43555,0.476563 8.251,2.144 12.29664,12.301062 7.93164,19.914062 -0.971,1.694 -3.6905,4.585938 -4.3125,4.585938 -0.09,0 -0.25037,0.106281 -0.35937,0.238281 -0.567,0.683 -2.92693,1.473435 -5.29493,1.773438 -4.815,0.612 -9.92754,-1.497079 -12.31054,-5.080079 -0.177,-0.266 -0.45228,-0.677015 -0.61328,-0.916015 -0.16,-0.238 -0.40593,-0.658594 -0.54493,-0.933594 -0.139,-0.275 -0.31648,-0.613 -0.39648,-0.75 -0.781,-1.35 -1.48117,-5.265609 -1.20117,-6.724609 0.09,-0.472 0.21439,-1.308422 0.27539,-1.857422 0.061,-0.549 0.25178,-1.276188 0.42578,-1.617188 0.174,-0.341 0.31836,-0.770172 0.31836,-0.951172 0,-0.182 0.0664,-0.371828 0.14844,-0.423828 0.083,-0.051 0.39445,-0.523781 0.68945,-1.050781 2.41637,-4.317625 6.90991,-6.772305 11.80859,-6.683594 z" />
    <g
       aria-label="s"
       id="text916"
       style="font-style:normal;font-weight:normal;font-size:64px;line-height:1.25;font-family:sans-serif;letter-spacing:0px;word-spacing:0px;fill:#000000;fill-opacity:1;stroke:none">
      <path
         d="m 326.64477,51.744484 v -0.128 c 0,-5.76 -5.504,-7.68 -10.752,-9.152 -4.672,-1.344 -9.088,-2.688 -9.088,-6.336 v -0.128 c 0,-3.264 2.944,-5.696 7.424,-5.696 3.456,0 7.04,1.28 10.048,3.264 l 1.664,-2.624 c -3.264,-2.176 -7.68,-3.584 -11.584,-3.584 -6.336,0 -10.752,3.776 -10.752,9.024 v 0.128 c 0,5.824 5.888,7.424 11.2,8.96 4.544,1.28 8.64,2.688 8.64,6.528 v 0.128 c 0,3.776 -3.456,6.208 -7.872,6.208 -4.16,0 -8.128,-1.536 -11.712,-4.288 l -1.856,2.496 c 3.456,2.816 8.64,4.736 13.376,4.736 6.272,0 11.264,-3.712 11.264,-9.536 z"
         style="font-style:normal;font-variant:normal;font-weight:normal;font-stretch:normal;font-size:64px;font-family:'Gotham Light';-inkscape-font-specification:'Gotham Light, '"
         id="path834" />
    </g>
  </g>
</svg>
